<svg width="30" height="15" viewBox="0 0 30 15" fill="none" xmlns="http://www.w3.org/2000/svg">
<path d="M4.60059 2.46862C4.60059 1.127 5.68819 0.0393982 7.02981 0.0393982H26.5917C27.9334 0.0393982 29.021 1.127 29.021 2.46862V9.66141C29.021 11.003 27.9334 12.0906 26.5917 12.0906H7.02981C5.68819 12.0906 4.60059 11.003 4.60059 9.66141V2.46862Z" fill="#465443"/>
<path fill-rule="evenodd" clip-rule="evenodd" d="M3.40384 2.91119C2.06221 2.91119 0.974609 3.9988 0.974609 5.34042V12.5332C0.974609 13.8748 2.06221 14.9624 3.40384 14.9624H22.9658C24.3074 14.9624 25.395 13.8748 25.395 12.5332V5.34042C25.395 3.9988 24.3074 2.91119 22.9658 2.91119H3.40384ZM13.1807 11.0722C14.36 11.0722 15.316 10.1161 15.316 8.93682C15.316 7.75749 14.36 6.80146 13.1807 6.80146C12.0014 6.80146 11.0453 7.75749 11.0453 8.93682C11.0453 10.1161 12.0014 11.0722 13.1807 11.0722Z" fill="#05D976"/>
</svg>
