<svg width="31" height="31" viewBox="0 0 31 31" fill="none" xmlns="http://www.w3.org/2000/svg">
    <circle cx="15.2285" cy="15.5776" r="15" fill="white"/>
    <path fill-rule="evenodd" clip-rule="evenodd" d="M13.5012 23.1293H17.0193C19.49 23.1293 20.7257 23.1293 21.6132 22.5115C21.9962 22.2452 22.326 21.9013 22.5837 21.4995C23.1767 20.575 23.1767 19.2865 23.1767 16.7111C23.1767 14.1358 23.1767 12.8473 22.5837 11.9227C22.326 11.5209 21.9962 11.1771 21.6132 10.9107C21.0432 10.5132 20.3291 10.3711 19.2359 10.3207C18.7142 10.3207 18.2653 9.90885 18.1632 9.37512C18.0851 8.98417 17.8824 8.63382 17.5891 8.38327C17.2959 8.13273 16.9302 7.99736 16.5538 8.00004H13.9667C13.1845 8.00004 12.5108 8.57579 12.3572 9.37512C12.2551 9.90885 11.8063 10.3207 11.2846 10.3207C10.1921 10.3711 9.47803 10.514 8.90725 10.9107C8.52452 11.1771 8.19499 11.521 7.93749 11.9227C7.34375 12.8473 7.34375 14.1349 7.34375 16.7111C7.34375 19.2873 7.34375 20.5741 7.93669 21.4995C8.19319 21.8996 8.52251 22.2434 8.90725 22.5115C9.79469 23.1293 11.0304 23.1293 13.5012 23.1293ZM15.2602 13.2726C13.4386 13.2726 11.9614 14.8116 11.9614 16.7103C11.9614 18.609 13.4394 20.1505 15.2602 20.1505C17.081 20.1505 18.559 18.6107 18.559 16.712C18.559 14.8132 17.081 13.2726 15.2602 13.2726ZM15.2602 14.6477C14.1677 14.6477 13.2811 15.5714 13.2811 16.7111C13.2811 17.85 14.1677 18.7737 15.2602 18.7737C16.3527 18.7737 17.2393 17.85 17.2393 16.7111C17.2393 15.5722 16.3527 14.6477 15.2602 14.6477ZM18.9984 13.9601C18.9984 13.5802 19.2937 13.2726 19.6586 13.2726H20.5373C20.9015 13.2726 21.1976 13.5802 21.1976 13.9601C21.1959 14.1441 21.1255 14.3199 21.0019 14.4488C20.8782 14.5777 20.7114 14.6492 20.5381 14.6477H19.6586C19.5727 14.6486 19.4875 14.6315 19.4079 14.5974C19.3282 14.5633 19.2557 14.5129 19.1944 14.4491C19.1331 14.3852 19.0842 14.3092 19.0506 14.2253C19.0169 14.1414 18.9992 14.0513 18.9984 13.9601Z" fill="#012619"/>
</svg>
