<svg width="18" height="20" viewBox="0 0 18 20" fill="none" xmlns="http://www.w3.org/2000/svg">
<path d="M2.77637 4.49271C2.77637 4.05933 3.12769 3.70801 3.56107 3.70801H4.86074C5.29413 3.70801 5.64545 4.05933 5.64545 4.49271V18.8305C5.64545 19.2639 5.29413 19.6152 4.86074 19.6152H3.56107C3.12769 19.6152 2.77637 19.2639 2.77637 18.8305V4.49271Z" fill="#4F624A"/>
<path d="M3.52916 0.505635C3.83119 -0.0175025 4.58628 -0.0175038 4.88831 0.505634L7.32191 4.72075C7.62394 5.24389 7.2464 5.89781 6.64233 5.89781H1.77514C1.17107 5.89781 0.793525 5.24389 1.09556 4.72075L3.52916 0.505635Z" fill="#4F624A"/>
<path d="M12.7744 15.2358C12.7744 15.6692 13.1257 16.0205 13.5591 16.0205H14.8588C15.2922 16.0205 15.6435 15.6692 15.6435 15.2358V0.898045C15.6435 0.464664 15.2922 0.113338 14.8588 0.113338H13.5591C13.1257 0.113338 12.7744 0.464664 12.7744 0.898045V15.2358Z" fill="#4F624A"/>
<path d="M13.5272 19.2229C13.8292 19.746 14.5843 19.746 14.8864 19.2229L17.32 15.0078C17.622 14.4846 17.2444 13.8307 16.6404 13.8307H11.7732C11.1691 13.8307 10.7916 14.4846 11.0936 15.0078L13.5272 19.2229Z" fill="#4F624A"/>
</svg>
