<svg width="33" height="33" viewBox="0 0 33 33" fill="none" xmlns="http://www.w3.org/2000/svg">
<circle cx="16.707" cy="16.5" r="15.5" stroke="#4F624A"/>
<path d="M17.4128 18.5006C17.0223 18.1101 16.3891 18.1101 15.9986 18.5006L13.4728 21.0264C13.1157 21.3835 12.5368 21.3835 12.1798 21.0264C11.8227 20.6694 11.8227 20.0905 12.1798 19.7334L14.7056 17.2076C15.0961 16.8171 15.0961 16.1839 14.7056 15.7934L12.1803 13.2681C11.8232 12.911 11.8232 12.3321 12.1803 11.975C12.5374 11.6179 13.1163 11.6179 13.4734 11.975L15.9987 14.5003C16.3893 14.8908 17.0224 14.8908 17.4129 14.5003L19.9388 11.9745C20.2958 11.6174 20.8747 11.6174 21.2318 11.9745C21.5888 12.3315 21.5888 12.9104 21.2318 13.2675L18.7059 15.7933C18.3154 16.1838 18.3154 16.817 18.7059 17.2075L21.2313 19.7328C21.5883 20.0899 21.5883 20.6688 21.2312 21.0259C20.8742 21.383 20.2952 21.383 19.9381 21.0259L17.4128 18.5006Z" fill="#4F624A"/>
</svg>
