<svg width="32" height="22" viewBox="0 0 32 22" fill="none" xmlns="http://www.w3.org/2000/svg">
<path d="M9.8111 11C12.7409 11 15.1121 8.62874 15.1121 5.69897C15.1121 2.76921 12.7409 0.397949 9.8111 0.397949C6.88134 0.397949 4.51008 2.76921 4.51008 5.69897C4.51008 8.62874 6.88134 11 9.8111 11ZM13.4461 12.5146H13.0533C12.0688 12.9879 10.9754 13.2719 9.8111 13.2719C8.64677 13.2719 7.55817 12.9879 6.56896 12.5146H6.17612C3.16589 12.5146 0.723633 14.9568 0.723633 17.9671V19.3302C0.723633 20.5844 1.74124 21.6021 2.9955 21.6021H16.6267C17.881 21.6021 18.8986 20.5844 18.8986 19.3302V17.9671C18.8986 14.9568 16.4563 12.5146 13.4461 12.5146ZM23.4423 11C25.9508 11 27.986 8.96479 27.986 6.45626C27.986 3.94774 25.9508 1.91253 23.4423 1.91253C20.9338 1.91253 18.8986 3.94774 18.8986 6.45626C18.8986 8.96479 20.9338 11 23.4423 11ZM25.7142 12.5146H25.5343C24.8764 12.7418 24.1807 12.8932 23.4423 12.8932C22.704 12.8932 22.0082 12.7418 21.3503 12.5146H21.1704C20.2049 12.5146 19.3151 12.7938 18.5341 13.2435C19.689 14.4883 20.4132 16.1401 20.4132 17.9671V19.7846C20.4132 19.8887 20.3895 19.9881 20.3848 20.0875H28.7433C29.9976 20.0875 31.0152 19.0699 31.0152 17.8156C31.0152 14.8858 28.6439 12.5146 25.7142 12.5146Z" fill="#838383"/>
</svg>
