<svg width="24" height="24" viewBox="0 0 24 24" fill="none" xmlns="http://www.w3.org/2000/svg">
<path d="M0.724609 20.0495C0.724609 22.0044 2.21951 23.4993 4.17439 23.4993H20.2734C22.2282 23.4993 23.7231 22.0044 23.7231 20.0495V10.8501H0.724609V20.0495ZM20.2734 2.80059H17.9735V1.65066C17.9735 0.960703 17.5135 0.500732 16.8236 0.500732C16.1336 0.500732 15.6737 0.960703 15.6737 1.65066V2.80059H8.7741V1.65066C8.7741 0.960703 8.31413 0.500732 7.62417 0.500732C6.93421 0.500732 6.47424 0.960703 6.47424 1.65066V2.80059H4.17439C2.21951 2.80059 0.724609 4.29549 0.724609 6.25037V8.55022H23.7231V6.25037C23.7231 4.29549 22.2282 2.80059 20.2734 2.80059Z" fill="#838383"/>
</svg>
