<svg width="22" height="24" viewBox="0 0 22 24" fill="none" xmlns="http://www.w3.org/2000/svg">
<rect x="4.98438" y="0.643433" width="3.00485" height="7.93302" rx="1.50243" fill="#05D976"/>
<rect x="14.1484" y="0.643433" width="3.00485" height="7.93302" rx="1.50243" fill="#05D976"/>
<path d="M0.550781 11.7377H21.5869V19.7666C21.5869 22.0496 19.7362 23.9003 17.4532 23.9003H4.68454C2.40153 23.9003 0.550781 22.0496 0.550781 19.7666V11.7377Z" fill="#FAFFFD"/>
<path d="M0.550781 9.74805H21.5869V7.57741C21.5869 5.2944 19.7362 3.44365 17.4532 3.44365H4.68454C2.40153 3.44365 0.550781 5.2944 0.550781 7.57741V9.74805Z" fill="#FAFFFD"/>
<path d="M4.98438 5.89583C4.98438 5.454 5.34255 5.09583 5.78438 5.09583H7.18926C7.63109 5.09583 7.98926 5.454 7.98926 5.89583V7.29583C7.98926 7.73765 7.63109 8.09583 7.18926 8.09583H5.78437C5.34255 8.09583 4.98438 7.73765 4.98438 7.29583V5.89583Z" fill="#05D976"/>
<path d="M14.1484 5.89583C14.1484 5.454 14.5066 5.09583 14.9484 5.09583H16.3533C16.7951 5.09583 17.1533 5.454 17.1533 5.89583V7.29583C17.1533 7.73765 16.7951 8.09583 16.3533 8.09583H14.9484C14.5066 8.09583 14.1484 7.73765 14.1484 7.29583V5.89583Z" fill="#05D976"/>
</svg>
