<svg width="20" height="21" viewBox="0 0 20 21" fill="none" xmlns="http://www.w3.org/2000/svg">
<path d="M9.99805 0.0932617C8.02024 0.0932617 6.08684 0.679751 4.44235 1.77857C2.79786 2.87738 1.51613 4.43917 0.759256 6.26643C0.00237971 8.09369 -0.195654 10.1044 0.190199 12.0442C0.576051 13.984 1.52846 15.7658 2.92698 17.1643C4.32551 18.5628 6.10734 19.5153 8.04715 19.9011C9.98696 20.287 11.9976 20.0889 13.8249 19.3321C15.6521 18.5752 17.2139 17.2935 18.3127 15.649C19.4116 14.0045 19.998 12.0711 19.998 10.0933C19.998 7.4411 18.9445 4.89756 17.0691 3.02219C15.1938 1.14683 12.6502 0.0932617 9.99805 0.0932617ZM14.2838 12.9504C14.2838 13.3293 14.1333 13.6926 13.8653 13.9606C13.5974 14.2285 13.2341 14.379 12.8552 14.379H7.14091C6.76203 14.379 6.39866 14.2285 6.13075 13.9606C5.86285 13.6926 5.71234 13.3293 5.71234 12.9504V7.23612C5.71234 6.85724 5.86285 6.49387 6.13075 6.22597C6.39866 5.95806 6.76203 5.80755 7.14091 5.80755H12.8552C13.2341 5.80755 13.5974 5.95806 13.8653 6.22597C14.1333 6.49387 14.2838 6.85724 14.2838 7.23612V12.9504Z" fill="#05D976"/>
</svg>
