<svg width="91" height="91" viewBox="0 0 91 91" fill="none" xmlns="http://www.w3.org/2000/svg">
<path d="M55.1719 28.2797V29.2797H56.1719H60.4477C63.5298 29.2797 65.8613 31.6112 65.8613 34.6934V37.9691H25.1035V34.6934C25.1035 31.6112 27.4351 29.2797 30.5172 29.2797H34.793H35.793V28.2797V26.1418C35.793 25.7277 35.9266 25.4603 36.088 25.2989C36.2493 25.1376 36.5167 25.0039 36.9309 25.0039C37.345 25.0039 37.6124 25.1376 37.7737 25.2989C37.9351 25.4603 38.0687 25.7277 38.0687 26.1418V28.2797V29.2797H39.0687H51.8961H52.8961V28.2797V26.1418C52.8961 25.7277 53.0298 25.4603 53.1911 25.2989C53.3525 25.1376 53.6199 25.0039 54.034 25.0039C54.4481 25.0039 54.7155 25.1376 54.8768 25.2989C55.0382 25.4603 55.1719 25.7277 55.1719 26.1418V28.2797ZM30.5172 65.7617C27.4351 65.7617 25.1035 63.4302 25.1035 60.348V44.2449H65.8613V60.348C65.8613 63.4302 63.5298 65.7617 60.4477 65.7617H30.5172Z" stroke="#838383" stroke-width="2"/>
<path d="M89.7637 45.3828C89.7637 69.6833 70.0642 89.3828 45.7637 89.3828C21.4631 89.3828 1.76367 69.6833 1.76367 45.3828C1.76367 21.0823 21.4631 1.38281 45.7637 1.38281C70.0642 1.38281 89.7637 21.0823 89.7637 45.3828Z" stroke="#838383" stroke-width="2"/>
</svg>
