<svg width="102" height="34" viewBox="0 0 102 34" fill="none" xmlns="http://www.w3.org/2000/svg">
<rect x="0.788574" y="0.5" width="101" height="33" rx="16.5" fill="#08F283"/>
<path d="M30.4362 11.3518C29.5971 10.5061 28.5787 9.85946 27.4559 9.45963C26.3332 9.05981 25.1349 8.91703 23.9495 9.04184C20.2758 9.41184 17.2527 12.3918 16.8423 16.0618C16.2917 20.9118 20.0456 25.0018 24.7804 25.0018C26.292 25.0018 27.7727 24.5734 29.0503 23.7662C30.3278 22.959 31.3499 21.8062 31.9978 20.4418C32.3181 19.7718 31.8376 19.0018 31.0968 19.0018C30.7265 19.0018 30.3761 19.2018 30.2159 19.5318C29.6348 20.7809 28.6407 21.7918 27.401 22.3947C26.1613 22.9975 24.7516 23.1554 23.409 22.8418C21.1867 22.3518 19.3949 20.5418 18.9244 18.3218C18.7266 17.4441 18.7289 16.5332 18.9311 15.6564C19.1333 14.7797 19.5302 13.9596 20.0925 13.2568C20.6547 12.5539 21.368 11.9864 22.1794 11.5961C22.9909 11.2057 23.8798 11.0027 24.7804 11.0018C26.4421 11.0018 27.9236 11.6918 29.0047 12.7818L27.4932 14.2918C26.8625 14.9218 27.303 16.0018 28.1939 16.0018H31.7876C32.3381 16.0018 32.7886 15.5518 32.7886 15.0018V11.4118C32.7886 10.5218 31.7075 10.0718 31.0768 10.7018L30.4362 11.3518Z" fill="black"/>
<path d="M43.7424 12.416H44.9664V14.276C44.9664 14.916 44.9184 15.54 44.8224 16.148C44.7344 16.748 44.5904 17.316 44.3904 17.852C44.1904 18.38 43.9304 18.86 43.6104 19.292C43.2984 19.716 42.9224 20.064 42.4824 20.336L41.4864 19.148C41.9024 18.9 42.2544 18.596 42.5424 18.236C42.8304 17.876 43.0624 17.48 43.2384 17.048C43.4144 16.616 43.5424 16.168 43.6224 15.704C43.7024 15.232 43.7424 14.756 43.7424 14.276V12.416ZM44.0544 12.416H45.2904V14.168C45.2904 14.648 45.3264 15.116 45.3984 15.572C45.4704 16.028 45.5824 16.456 45.7344 16.856C45.8944 17.256 46.1064 17.62 46.3704 17.948C46.6344 18.268 46.9624 18.532 47.3544 18.74L46.4304 20.012C45.9824 19.756 45.6024 19.428 45.2904 19.028C44.9864 18.628 44.7424 18.172 44.5584 17.66C44.3824 17.148 44.2544 16.596 44.1744 16.004C44.0944 15.412 44.0544 14.8 44.0544 14.168V12.416ZM49.7184 11.444H51.2424V22.556H49.7184V11.444ZM48.3864 15.764H50.2344V17.048H48.3864V15.764ZM47.3304 11.624H48.8184V22.064H47.3304V11.624ZM52.7415 20.048H62.8095V21.344H52.7415V20.048ZM56.9655 17.936H58.5495V20.564H56.9655V17.936ZM53.8815 12.164H61.6695V15.872H55.4775V17.732H53.8935V14.624H60.0855V13.436H53.8815V12.164ZM53.8935 17.108H61.9215V18.38H53.8935V17.108ZM64.8126 12.392H71.8446V13.664H64.8126V12.392ZM63.7806 19.928H73.8366V21.224H63.7806V19.928ZM67.3326 16.112H68.9406V20.576H67.3326V16.112ZM71.2686 12.392H72.8766V13.448C72.8766 13.912 72.8686 14.404 72.8526 14.924C72.8446 15.444 72.8086 16.02 72.7446 16.652C72.6886 17.284 72.5846 17.992 72.4326 18.776L70.8366 18.608C71.0606 17.496 71.1886 16.528 71.2206 15.704C71.2526 14.872 71.2686 14.12 71.2686 13.448V12.392ZM77.5196 13.268H78.8276V13.664C78.8276 14.312 78.7116 14.924 78.4796 15.5C78.2476 16.076 77.8996 16.576 77.4356 17C76.9716 17.424 76.3756 17.736 75.6476 17.936L74.9036 16.7C75.3596 16.572 75.7516 16.404 76.0796 16.196C76.4156 15.98 76.6876 15.736 76.8956 15.464C77.1116 15.192 77.2676 14.904 77.3636 14.6C77.4676 14.296 77.5196 13.984 77.5196 13.664V13.268ZM77.8196 13.268H79.1156V13.664C79.1156 13.96 79.1676 14.252 79.2716 14.54C79.3836 14.828 79.5436 15.1 79.7516 15.356C79.9676 15.604 80.2396 15.828 80.5676 16.028C80.9036 16.228 81.2996 16.388 81.7556 16.508L81.0236 17.756C80.3116 17.564 79.7156 17.268 79.2356 16.868C78.7636 16.46 78.4076 15.98 78.1676 15.428C77.9356 14.876 77.8196 14.288 77.8196 13.664V13.268ZM75.2876 12.548H81.3596V13.796H75.2876V12.548ZM77.5196 11.408H79.1276V13.112H77.5196V11.408ZM82.4516 11.456H84.0476V17.96H82.4516V11.456ZM76.6556 18.44H84.0476V22.448H76.6556V18.44ZM82.4876 19.688H78.2276V21.188H82.4876V19.688Z" fill="black"/>
</svg>
