<svg width="87" height="86" viewBox="0 0 87 86" fill="none" xmlns="http://www.w3.org/2000/svg">
    <path d="M32.9287 42.2416C32.9287 39.1588 35.4278 36.6597 38.5106 36.6597H47.2417C50.3245 36.6597 52.8236 39.1588 52.8236 42.2416H32.9287Z" fill="#05D976"/>
    <rect x="57.1211" y="52.0308" width="19.8949" height="6.91698" rx="3.45849" fill="#D9D9D9"/>
    <rect x="8.73828" y="52.0308" width="19.8949" height="6.91698" rx="3.45849" fill="#D9D9D9"/>
    <rect x="18.6875" y="78.8428" width="19.8949" height="9.35973" rx="4.67987" transform="rotate(-90 18.6875 78.8428)" fill="#555555"/>
    <rect x="57.71" y="78.8428" width="19.8949" height="9.35973" rx="4.67987" transform="rotate(-90 57.71 78.8428)" fill="#555555"/>
    <path d="M18.6875 52.0308C18.6875 46.008 23.57 41.1255 29.5929 41.1255H56.1653C62.1882 41.1255 67.0707 46.008 67.0707 52.0308C67.0707 58.0537 62.1882 62.9362 56.1653 62.9362H29.5929C23.57 62.9362 18.6875 58.0537 18.6875 52.0308Z" fill="white"/>
    <rect x="24.0938" y="44.5879" width="37.5708" height="11.56" rx="5.77999" fill="#555555"/>
    <path d="M12.1904 57.4309C12.1904 54.4485 14.6082 52.0308 17.5906 52.0308H68.1619C71.1443 52.0308 73.5621 54.4485 73.5621 57.4309V68.4413C73.5621 71.4237 71.1443 73.8415 68.1619 73.8415H17.5906C14.6081 73.8415 12.1904 71.4237 12.1904 68.4413V57.4309Z" fill="white"/>
    <circle cx="24.8928" cy="59.5857" r="4.09591" fill="#555555"/>
    <circle cx="60.8625" cy="59.5857" r="4.09591" fill="#555555"/>
    <rect x="31.1191" y="62.9365" width="23.5157" height="7.31106" rx="3.65553" fill="#05D976"/>
    <rect x="27.7227" y="45.3745" width="8.8407" height="3.52301" rx="1.7615" fill="#878383"/>
    <path d="M42.8769 17.3065C42.1104 17.3065 41.3754 16.9994 40.8334 16.4527C40.2914 15.906 39.987 15.1646 39.987 14.3915C39.987 13.6184 40.2914 12.8769 40.8334 12.3303C41.3754 11.7836 42.1104 11.4765 42.8769 11.4765C43.6433 11.4765 44.3784 11.7836 44.9203 12.3303C45.4623 12.8769 45.7668 13.6184 45.7668 14.3915C45.7668 14.7743 45.692 15.1533 45.5468 15.507C45.4016 15.8607 45.1887 16.182 44.9203 16.4527C44.652 16.7234 44.3334 16.9381 43.9828 17.0846C43.6322 17.2311 43.2564 17.3065 42.8769 17.3065ZM42.8769 6.22949C40.7308 6.22949 38.6727 7.08941 37.1552 8.62009C35.6377 10.1508 34.7852 12.2268 34.7852 14.3915C34.7852 20.513 42.8769 29.5495 42.8769 29.5495C42.8769 29.5495 50.9686 20.513 50.9686 14.3915C50.9686 12.2268 50.1161 10.1508 48.5986 8.62009C47.0811 7.08941 45.0229 6.22949 42.8769 6.22949Z" fill="#08F283"/>
</svg>
