<svg width="16" height="58" viewBox="0 0 16 58" fill="none" xmlns="http://www.w3.org/2000/svg">
<circle cx="7.74625" cy="6.4539" r="6.24723" fill="#4F624A"/>
<rect x="6.30371" y="6.4541" width="3.12362" height="29.1537" rx="1.56181" fill="url(#paint0_linear_1332_1766)"/>
<path d="M7.74902 46.0167C7.02031 46.0167 6.32144 45.7281 5.80616 45.2144C5.29088 44.7007 5.00139 44.004 5.00139 43.2775C5.00139 42.551 5.29088 41.8542 5.80616 41.3405C6.32144 40.8268 7.02031 40.5382 7.74902 40.5382C8.47774 40.5382 9.17661 40.8268 9.69189 41.3405C10.2072 41.8542 10.4967 42.551 10.4967 43.2775C10.4967 43.6372 10.4256 43.9934 10.2875 44.3258C10.1494 44.6581 9.94703 44.9601 9.69189 45.2144C9.43675 45.4688 9.13385 45.6706 8.8005 45.8082C8.46714 45.9459 8.10985 46.0167 7.74902 46.0167ZM7.74902 35.6075C5.70862 35.6075 3.75178 36.4156 2.309 37.854C0.866212 39.2924 0.0556641 41.2433 0.0556641 43.2775C0.0556641 49.0299 7.74902 57.5217 7.74902 57.5217C7.74902 57.5217 15.4424 49.0299 15.4424 43.2775C15.4424 41.2433 14.6318 39.2924 13.189 37.854C11.7463 36.4156 9.78943 35.6075 7.74902 35.6075Z" fill="#08F283"/>
<defs>
<linearGradient id="paint0_linear_1332_1766" x1="7.86552" y1="18.2732" x2="7.86552" y2="35.2139" gradientUnits="userSpaceOnUse">
<stop stop-color="#4B5E46"/>
<stop offset="1" stop-color="#3E5F39" stop-opacity="0"/>
</linearGradient>
</defs>
</svg>
