<svg width="31" height="19" viewBox="0 0 31 19" fill="none" xmlns="http://www.w3.org/2000/svg">
<path d="M10.8564 2.49757C10.8564 1.14962 11.9492 0.0568848 13.2971 0.0568848H17.1148C18.4627 0.0568848 19.5555 1.14962 19.5555 2.49757H10.8564Z" fill="#838383"/>
<rect x="21.4351" y="6.77698" width="8.69902" height="3.02444" rx="1.51222" fill="#D9D9D9"/>
<rect x="0.281738" y="6.7771" width="8.69902" height="3.02444" rx="1.51222" fill="#D9D9D9"/>
<rect x="4.63184" y="18.4993" width="8.69902" height="4.09253" rx="2.04626" transform="rotate(-90 4.63184 18.4993)" fill="#555555"/>
<rect x="21.6924" y="18.4993" width="8.69902" height="4.09253" rx="2.04626" transform="rotate(-90 21.6924 18.4993)" fill="#555555"/>
<path d="M4.63184 6.77719C4.63184 4.14394 6.7665 2.00928 9.39975 2.00928H21.0175C23.6507 2.00928 25.7854 4.14394 25.7854 6.77719C25.7854 9.41043 23.6507 11.5451 21.0175 11.5451H9.39975C6.7665 11.5451 4.63184 9.41043 4.63184 6.77719Z" fill="#D9D9D9"/>
<rect x="6.99365" y="3.52319" width="16.4263" height="5.05412" rx="2.52706" fill="#555555"/>
<path d="M1.79004 9.13808C1.79004 7.83415 2.84709 6.7771 4.15102 6.7771H26.2612C27.5652 6.7771 28.6222 7.83415 28.6222 9.13808V13.9519C28.6222 15.2559 27.5652 16.3129 26.2612 16.3129H4.15102C2.84708 16.3129 1.79004 15.2559 1.79004 13.9519V9.13808Z" fill="#D9D9D9"/>
<circle cx="7.34431" cy="10.0809" r="1.79157" fill="#555555"/>
<circle cx="23.0714" cy="10.0809" r="1.79157" fill="#555555"/>
<rect x="10.0679" y="11.5452" width="10.2822" height="3.19675" rx="1.59837" fill="#838383"/>
<rect x="8.58105" y="3.86694" width="3.86697" height="1.54098" rx="0.770491" fill="#878383"/>
</svg>
