<svg width="49" height="49" viewBox="0 0 49 49" fill="none" xmlns="http://www.w3.org/2000/svg">
<rect x="0.613281" y="0.399902" width="48" height="48" rx="14" fill="#0F0F0F"/>
<path d="M37.9824 30.2808V21.3279H40.3897V22.89H40.4829C40.6461 22.3344 40.9201 21.9147 41.3048 21.631C41.6895 21.3435 42.1324 21.1997 42.6337 21.1997C42.758 21.1997 42.8921 21.2075 43.0359 21.223C43.1796 21.2386 43.3059 21.2599 43.4147 21.2871V23.4904C43.2982 23.4554 43.1369 23.4243 42.931 23.3971C42.725 23.3699 42.5366 23.3563 42.3656 23.3563C42.0003 23.3563 41.6739 23.436 41.3864 23.5953C41.1027 23.7507 40.8773 23.9683 40.7102 24.2481C40.547 24.5279 40.4654 24.8504 40.4654 25.2157V30.2808H37.9824Z" fill="#05D976"/>
<path d="M32.2535 30.4557C31.3325 30.4557 30.5398 30.2692 29.8754 29.8961C29.2148 29.5192 28.7057 28.9869 28.3483 28.2991C27.9908 27.6074 27.812 26.7895 27.812 25.8452C27.812 24.9243 27.9908 24.116 28.3483 23.4205C28.7057 22.7249 29.2089 22.1829 29.8579 21.7943C30.5107 21.4057 31.2762 21.2114 32.1544 21.2114C32.745 21.2114 33.2948 21.3066 33.8039 21.497C34.3168 21.6835 34.7637 21.9653 35.1445 22.3422C35.5292 22.7191 35.8284 23.1932 36.0421 23.7644C36.2558 24.3317 36.3627 24.9962 36.3627 25.7578V26.4397H28.8029V24.901H34.0254C34.0254 24.5435 33.9477 24.2268 33.7922 23.9509C33.6368 23.675 33.4211 23.4593 33.1452 23.3039C32.8732 23.1446 32.5565 23.0649 32.1952 23.0649C31.8182 23.0649 31.4841 23.1524 31.1926 23.3272C30.9051 23.4982 30.6797 23.7294 30.5165 24.0208C30.3533 24.3084 30.2698 24.629 30.2659 24.9826V26.4456C30.2659 26.8885 30.3475 27.2713 30.5107 27.5938C30.6778 27.9163 30.9129 28.165 31.216 28.3399C31.519 28.5147 31.8785 28.6022 32.2943 28.6022C32.5701 28.6022 32.8227 28.5633 33.052 28.4856C33.2812 28.4079 33.4775 28.2913 33.6407 28.1359C33.8039 27.9805 33.9282 27.79 34.0137 27.5647L36.3102 27.7162C36.1936 28.268 35.9547 28.7498 35.5933 29.1617C35.2358 29.5697 34.7734 29.8884 34.2061 30.1176C33.6426 30.343 32.9918 30.4557 32.2535 30.4557Z" fill="#05D976"/>
<path d="M17.7852 30.2809V18.3438H20.2682V22.8318H20.3439C20.4527 22.5909 20.6101 22.3461 20.8161 22.0974C21.0259 21.8448 21.2979 21.635 21.6321 21.4679C21.9701 21.2969 22.3898 21.2115 22.8911 21.2115C23.5439 21.2115 24.1462 21.3824 24.698 21.7244C25.2497 22.0624 25.6908 22.5734 26.0211 23.2573C26.3514 23.9373 26.5165 24.7903 26.5165 25.8161C26.5165 26.8147 26.3552 27.658 26.0327 28.3457C25.7141 29.0296 25.2789 29.5484 24.7271 29.902C24.1792 30.2517 23.5652 30.4266 22.8852 30.4266C22.4034 30.4266 21.9935 30.3469 21.6554 30.1876C21.3212 30.0283 21.0473 29.8282 20.8335 29.5872C20.6198 29.3424 20.4566 29.0957 20.3439 28.847H20.2332V30.2809H17.7852ZM20.2157 25.8044C20.2157 26.3368 20.2895 26.8011 20.4372 27.1975C20.5849 27.5938 20.7986 27.9028 21.0784 28.1243C21.3581 28.3419 21.6981 28.4507 22.0984 28.4507C22.5025 28.4507 22.8444 28.3399 23.1242 28.1184C23.404 27.893 23.6158 27.5822 23.7595 27.1858C23.9072 26.7856 23.981 26.3251 23.981 25.8044C23.981 25.2876 23.9091 24.833 23.7654 24.4405C23.6216 24.0481 23.4098 23.7411 23.13 23.5196C22.8503 23.2981 22.5064 23.1874 22.0984 23.1874C21.6942 23.1874 21.3523 23.2942 21.0725 23.5079C20.7966 23.7217 20.5849 24.0248 20.4372 24.4172C20.2895 24.8097 20.2157 25.2721 20.2157 25.8044Z" fill="#05D976"/>
<path d="M13.1853 18.3438H15.7091V26.0959C15.7091 26.9663 15.5012 27.7279 15.0854 28.3807C14.6735 29.0335 14.0965 29.5426 13.3543 29.9078C12.6121 30.2692 11.7475 30.4499 10.7605 30.4499C9.76968 30.4499 8.90315 30.2692 8.16096 29.9078C7.41878 29.5426 6.84174 29.0335 6.42985 28.3807C6.01796 27.7279 5.81201 26.9663 5.81201 26.0959V18.3438H8.33582V25.8802C8.33582 26.3349 8.43491 26.739 8.63309 27.0926C8.83515 27.4462 9.11881 27.724 9.48407 27.9261C9.84933 28.1281 10.2748 28.2292 10.7605 28.2292C11.2502 28.2292 11.6756 28.1281 12.037 27.9261C12.4023 27.724 12.684 27.4462 12.8822 27.0926C13.0842 26.739 13.1853 26.3349 13.1853 25.8802V18.3438Z" fill="#05D976"/>
</svg>
